HIERARCHY
ROOT Hips
{
	OFFSET 0.00000 0.00000 0.00000
	CHANNELS 6 Xposition Yposition Zposition Yrotation Zrotation Xrotation 
	JOINT Lumbar
	{
		OFFSET 0 0 0
		CHANNELS 3 Zrotation Xrotation Yrotation
		JOINT Neck
		{
			OFFSET 0.00 0.2701 0.00
			CHANNELS 3 Zrotation Xrotation Yrotation
			End Site
			{
				OFFSET 0.00 0.1379 0.00
			}
		}
		JOINT RightShoulder
		{
			OFFSET 0.0119 0.2289 0.1181
			CHANNELS 3 Zrotation Xrotation Yrotation
			JOINT RightElbow
			{
				OFFSET 0.00 -0.1475 0.00
				CHANNELS 2 Zrotation Yrotation
				JOINT RightWrist
				{
					OFFSET 0.00 -0.1605 0.00
					CHANNELS 2 Zrotation Xrotation
					End Site
					{
						OFFSET 0.0040 -0.1068 0.0006
					}
				}
			}
		}
		JOINT LeftShoulder
		{
			OFFSET 0.0119 0.2289 -0.1181
			CHANNELS 3 Zrotation Xrotation Yrotation
			JOINT LeftElbow
			{
				OFFSET 0.00 -0.1475 0.00
				CHANNELS 2 Zrotation Yrotation
				JOINT LeftWrist
				{
					OFFSET 0.00 -0.1605 0.00
					CHANNELS 2 Zrotation Xrotation
					End Site
					{
						OFFSET 0.0040 -0.1068 -0.0006
					}
				}
			}
		}
	}
	JOINT RightHip
	{
		OFFSET 0.0316 -0.0424 0.0458
		CHANNELS 3 Zrotation Xrotation Yrotation
		JOINT RightKnee
		{
			OFFSET 0.00 -0.2438 0.00
			CHANNELS 1 Zrotation
			JOINT RightAnkle
			{
				OFFSET 0.00 -0.2449 0.00
				CHANNELS 3 Zrotation Xrotation Yrotation
				End Site
				{
					OFFSET 0.1237 -0.0542 0.0051
				}
			}
		}
	}
	JOINT LeftHip
	{
		OFFSET 0.0316 -0.0424 -0.0458
		CHANNELS 3 Zrotation Xrotation Yrotation
		JOINT LeftKnee
		{
			OFFSET 0.00 -0.2438 0.00
			CHANNELS 1 Zrotation
			JOINT LeftAnkle
			{
				OFFSET 0.00 -0.2449 0.00
				CHANNELS 3 Zrotation Xrotation Yrotation
				End Site
				{
					OFFSET 0.1237 -0.0542 -0.0051
				}
			}
		}
	}
}
MOTION
Frames: 22
Frame Time: 0.02
-0.0002 3e-05 2e-05 20.33577 -36.17926 -2.50483 58.13433 -0.44627 0.47679 -12.69602 0.18412 -1.27842 174.51577 -76.83548 -63.31182 13.73702 62.9264 7.16839 -0.74447 154.87793 82.05976 229.98048 5.78648 -65.46566 -15.25175 13.49115 50.20591 -3.72153 -16.70618 -19.04465 -7.13115 -3.22173 -3.82763 54.83726 1.153 0.20629 -24.37044 -8.92536 4.39467 4.50112
-0.00077 -0.00014 0.00034 20.3667 -36.10313 -2.53074 57.93648 -0.40284 0.59319 -12.34265 0.04824 -1.27983 168.86527 -76.84886 -65.71427 12.97759 63.88508 6.33131 -0.95556 149.15713 81.83712 201.35153 5.78628 -68.73286 -13.46556 11.47029 50.21716 -3.64732 -16.37945 -19.06247 -7.16051 -3.25195 -3.84432 54.81606 1.3604 1.02623 -24.37383 -8.85083 4.3271 4.46359
-0.00135 -0.00032 0.00066 20.39768 -36.02705 -2.5566 57.73895 -0.35957 0.70932 -11.98996 -0.08721 -1.28125 163.22432 -76.86181 -68.07331 12.2205 64.84275 5.49565 -1.16416 143.45177 81.61314 172.81078 5.78691 -71.98935 -11.68509 9.45757 50.22828 -3.5733 -16.05361 -19.08026 -7.1898 -3.2821 -3.86097 54.79484 1.56724 1.84385 -24.37723 -8.77653 4.2597 4.42616
-0.00192 -0.00049 0.00098 20.42853 -35.95113 -2.58243 57.54166 -0.31628 0.82537 -11.63761 -0.22267 -1.28265 157.58997 -76.87515 -70.46134 11.46331 65.79884 4.66099 -1.37418 137.74836 81.39087 144.27002 5.78673 -75.24648 -9.90438 7.44327 50.23948 -3.49931 -15.72786 -19.09803 -7.21907 -3.31222 -3.87761 54.77368 1.77402 2.6613 -24.38062 -8.70223 4.19233 4.38875
-0.0025 -0.00067 0.00129 20.45928 -35.87521 -2.60828 57.34417 -0.27285 0.94169 -11.28476 -0.35856 -1.28407 151.94899 -76.88887 -72.90951 10.70406 66.75509 3.82525 -1.58771 132.02999 81.17068 115.64109 5.7857 -78.5143 -8.11802 5.42003 50.25085 -3.42515 -15.40127 -19.11583 -7.2484 -3.34242 -3.89428 54.75257 1.98132 3.48097 -24.38399 -8.62772 4.1248 4.35125
-0.00307 -0.00084 0.00161 20.49072 -35.79879 -2.63418 57.14654 -0.2299 1.0574 -10.93245 -0.49309 -1.28548 146.3085 -76.90011 -75.08324 9.95171 67.71562 2.98976 -1.78617 126.35214 80.93875 87.28734 5.78997 -81.74665 -6.35013 3.42948 50.26144 -3.35141 -15.07705 -19.13359 -7.27762 -3.37246 -3.91087 54.73111 2.18718 4.29424 -24.38744 -8.55384 4.05769 4.31398
-0.00365 -0.00101 0.00193 20.52072 -35.72349 -2.65995 56.94944 -0.18602 1.17419 -10.57941 -0.63021 -1.28688 140.67348 -76.91678 -77.79737 9.18563 68.66679 2.15495 -2.01376 120.60019 80.73072 58.41272 5.7828 -85.04729 -4.5467 1.37572 50.27359 -3.2769 -14.7484 -19.1514 -7.30702 -3.40277 -3.92761 54.71038 2.39572 5.1195 -24.39074 -8.47879 3.98981 4.27628
-0.00422 -0.00119 0.00224 20.55211 -35.64713 -2.68584 56.75182 -0.14301 1.29 -10.22709 -0.76494 -1.28831 135.03297 -76.92765 -80.03038 8.43344 69.62601 1.31905 -2.2163 114.91443 80.50063 30.01553 5.78761 -88.28408 -2.77665 -0.62046 50.28429 -3.20312 -14.42387 -19.16918 -7.33625 -3.43283 -3.94421 54.68897 2.60179 5.9337 -24.39418 -8.40481 3.92263 4.23897
-0.0048 -0.00136 0.00256 20.585 -35.56952 -2.71187 56.55353 -0.10102 1.40462 -9.87523 -0.89681 -1.28971 129.38375 -76.93451 -81.60139 7.69301 70.59815 0.48306 -2.38074 109.31531 80.24319 2.20148 5.80153 -91.44755 -1.04429 -2.54394 50.29326 -3.13014 -14.10406 -19.1869 -7.36532 -3.46262 -3.96065 54.66674 2.80491 6.73473 -24.39779 -8.33213 3.85633 4.20215
-0.00537 -0.00154 0.00288 20.60865 -35.4992 -2.73709 56.35897 -0.05302 1.52612 -9.51944 -1.04531 -1.2911 123.77833 -76.9737 -86.75853 6.86922 71.50525 -0.34869 -2.7419 103.23468 80.14191 -28.96994 5.74642 -95.04715 0.91432 -4.87873 50.31231 -3.05227 -13.75615 -19.20488 -7.39546 -3.49409 -3.97805 54.64927 3.02523 7.61262 -24.40039 -8.25194 3.78501 4.16256
-0.00595 -0.00171 0.0032 20.65215 -35.41348 -2.76403 56.15667 -0.01779 1.63305 -9.17282 -1.1586 -1.29261 118.08579 -76.9388 -84.49573 6.23139 72.54334 -1.19157 -2.70258 98.15978 79.71218 -53.05441 5.84748 -97.71732 2.38947 -6.35027 50.31002 -2.98488 -13.46814 -19.22237 -7.42324 -3.52192 -3.99337 54.62175 3.20909 8.32758 -24.40514 -8.1876 3.72427 4.1288
-0.00657 -0.00187 0.00351 20.74787 -35.28532 -2.79576 55.9319 -0.0172 1.7002 -8.84384 -1.17549 -1.29357 112.1006 -76.74434 -60.45935 6.02845 73.99783 -2.04798 -1.43121 95.94943 78.36124 -57.52679 6.29675 -97.89058 2.57478 -5.39365 50.24933 -2.94522 -13.34092 -19.23798 -7.44541 -3.54035 -4.00331 54.56651 3.29356 8.59817 -24.41584 -8.16722 3.69288 4.11113
-0.0072 -0.00203 0.00382 20.86384 -35.14187 -2.82929 55.69964 -0.02944 1.75271 -8.52526 -1.15703 -1.29478 106.03564 -76.46585 -29.2347 6.02791 75.5741 -2.91862 0.21912 94.72707 76.68298 -54.90735 6.9188 -97.12221 2.26729 -3.58227 50.16729 -2.91624 -13.2744 -19.25319 -7.46503 -3.55495 -4.01106 54.50132 3.34149 8.70498 -24.42866 -8.16266 3.67197 4.09925
-0.00783 -0.00219 0.00413 20.97215 -35.00536 -2.86187 55.47155 -0.03616 1.81177 -8.2071 -1.15455 -1.29645 100.04473 -76.19918 -2.22053 5.98185 77.05653 -3.79404 1.60723 92.9872 75.16897 -55.6491 7.51288 -96.74777 2.16201 -2.19941 50.09476 -2.88308 -13.18254 -19.26896 -7.4853 -3.57099 -4.01962 54.44065 3.40544 8.88459 -24.44055 -8.15062 3.64618 4.08471
-0.00845 -0.00235 0.00445 21.07443 -34.86825 -2.89472 55.24 -0.04188 1.87119 -7.86808 -1.15221 -1.29576 93.90265 -76.0499 28.796 5.73314 78.69862 -4.62256 3.36992 91.54846 73.59366 -55.8187 7.88955 -96.50848 2.14979 -0.64125 50.02254 -2.84719 -13.0817 -19.2832 -7.50781 -3.58852 -4.02907 54.37955 3.47097 9.06947 -24.45249 -8.13993 3.62126 4.0705
-0.00908 -0.00251 0.00476 21.19352 -34.72952 -2.9278 55.01414 -0.05238 1.92645 -7.57391 -1.14139 -1.29996 88.04581 -75.62836 53.17538 5.96316 80.0409 -5.55146 4.44992 89.70428 72.06245 -55.46656 8.76548 -95.7726 1.82412 0.74886 49.94521 -2.81938 -13.01347 -19.30047 -7.52494 -3.60177 -4.03598 54.3175 3.52557 9.20613 -24.46461 -8.13003 3.59655 4.05674
-0.00972 -0.00267 0.00508 21.35881 -34.58374 -2.95767 54.80366 -0.07584 1.97318 -7.41042 -1.1142 -1.31857 83.09212 -74.54075 57.48069 7.38966 80.48896 -6.75575 3.48446 86.60293 70.78329 -55.71549 10.92757 -93.82962 0.78368 1.51156 49.85424 -2.81246 -13.02432 -19.32674 -7.52875 -3.60649 -4.03792 54.25124 3.54982 9.23606 -24.47869 -8.11991 3.574 4.04498
-0.01036 -0.00283 0.0054 21.5395 -34.43814 -2.98825 54.59947 -0.10321 2.01631 -7.29011 -1.07997 -1.34194 78.41289 -73.16859 54.85775 9.30398 80.63603 -8.0574 1.83157 83.04107 69.54885 -55.63163 13.59329 -91.43207 -0.55732 2.06815 49.75991 -2.8131 -13.06513 -19.35602 -7.52708 -3.60664 -4.03712 54.18531 3.56578 9.22525 -24.49259 -8.10982 3.55064 4.03314
-0.01099 -0.00299 0.00572 21.70994 -34.29649 -3.02083 54.39399 -0.12677 2.06155 -7.14369 -1.05008 -1.36246 73.54191 -71.88568 55.39117 11.04611 80.94719 -9.317 0.53734 79.61961 68.26329 -55.49852 16.06403 -89.2864 -1.78465 2.68706 49.67002 -2.80949 -13.0897 -19.38355 -7.52727 -3.6073 -4.03652 54.12168 3.59186 9.2427 -24.50519 -8.09864 3.52477 4.01985
-0.01164 -0.00315 0.00603 21.89452 -34.13688 -3.04404 54.18213 -0.15898 2.10446 -7.02441 -1.01428 -1.38575 68.94075 -70.77437 56.12623 12.59084 81.15495 -10.57958 -0.93975 76.5177 67.10328 -55.95442 18.40654 -86.91658 -2.94626 3.46262 49.56644 -2.80962 -13.12755 -19.41255 -7.52989 -3.61426 -4.0401 54.04663 3.59094 9.2152 -24.52337 -8.09229 3.51092 4.01276
-0.01227 -0.0033 0.00636 22.0534 -34.01544 -3.08645 53.98453 -0.17442 2.15135 -6.85948 -0.98939 -1.40457 63.85679 -69.23238 54.72324 14.65428 81.49546 -11.84417 -2.20314 72.6352 65.68794 -55.20904 21.1224 -84.91799 -4.29236 3.85876 49.4917 -2.80369 -13.14395 -19.43939 -7.52635 -3.6073 -4.03456 53.99647 3.64339 9.27139 -24.53024 -8.07603 3.47231 3.99299
-0.01285 -0.0034 0.00669 22.13411 -33.99515 -3.18575 53.82971 -0.13837 2.21199 -6.55148 -0.99827 -1.40843 57.26404 -66.63064 48.8933 18.07412 82.35879 -13.21844 -2.7191 66.6443 63.6348 -51.15996 24.83819 -84.06032 -6.2234 3.19241 49.49043 -2.77864 -13.09453 -19.45784 -7.50588 -3.56081 -4.00251 54.00732 3.85706 9.59019 -24.50276 -8.02936 3.36025 3.93538
